<svg width="15" height="15" viewBox="0 0 15 15" fill="none" xmlns="http://www.w3.org/2000/svg">
<path d="M2.90524 6.81867V6.29028H2.42137V6.77415H1.9375V7.49996C1.9375 7.90012 2.26315 8.22577 2.66331 8.22577C2.79661 8.22577 2.90524 8.3344 2.90524 8.4677V8.70964H2.66331C2.53 8.70964 2.42137 8.60101 2.42137 8.4677V8.22577H1.9375V8.4677C1.9375 8.7827 2.14048 9.04883 2.42137 9.14899V9.67738H2.90524V9.19351H3.38911V8.4677C3.38911 8.06754 3.06347 7.7419 2.66331 7.7419C2.53 7.7419 2.42137 7.63327 2.42137 7.49996V7.25803H2.66331C2.79661 7.25803 2.90524 7.36665 2.90524 7.49996V7.7419H3.38911V7.49996C3.38911 7.18496 3.18613 6.91883 2.90524 6.81867Z" fill="black"/>
<path fill-rule="evenodd" clip-rule="evenodd" d="M4.35156 5.80647V4.35486H7.25479V5.80647H4.35156ZM4.83543 5.3226H6.77092V4.83873H4.83543V5.3226Z" fill="black"/>
<path d="M8.71094 4.35486H9.67868V4.83873H8.71094V4.35486Z" fill="black"/>
<path d="M10.1641 4.35486H11.1318V4.83873H10.1641V4.35486Z" fill="black"/>
<path d="M8.71094 5.32263H11.1303V5.8065H8.71094V5.32263Z" fill="black"/>
<path d="M8.71094 6.29028H9.67868V6.77415H8.71094V6.29028Z" fill="black"/>
<path d="M10.1641 6.29028H11.1318V6.77415H10.1641V6.29028Z" fill="black"/>
<path d="M8.71094 7.25806H11.1303V7.74193H8.71094V7.25806Z" fill="black"/>
<path d="M8.71094 8.22583H9.67868V8.7097H8.71094V8.22583Z" fill="black"/>
<path d="M10.1641 8.22583H11.1318V8.7097H10.1641V8.22583Z" fill="black"/>
<path d="M8.71094 9.1936H11.1303V9.67747H8.71094V9.1936Z" fill="black"/>
<path fill-rule="evenodd" clip-rule="evenodd" d="M12.8226 0H13.7903C14.4573 0 15 0.542661 15 1.20968V6.95903C15 7.03379 14.9823 7.10855 14.949 7.17532L13.8731 9.32734C13.8034 9.46645 13.686 9.56637 13.5484 9.62371V14.5161C13.5484 14.783 13.3314 15 13.0645 15H0.483871C0.217016 15 0 14.783 0 14.5161V10.6452C0 10.3783 0.217016 10.1613 0.483871 10.1613H1.13589C0.450242 9.67935 0 8.88387 0 7.98387C0 6.76839 0.820161 5.74282 1.93548 5.42589V2.54492L4.5179 0.483871H11.8611C12.082 0.191855 12.429 0 12.8226 0ZM13.7903 0.483871H12.8226C12.4224 0.483871 12.0968 0.809516 12.0968 1.20968V1.93548H14.5161V1.20968C14.5161 0.809516 14.1905 0.483871 13.7903 0.483871ZM13.1727 9.11081L12.9721 8.70968H13.6408L13.4402 9.11105C13.3892 9.2129 13.2237 9.2129 13.1727 9.11081ZM12.2463 7.25806L12.7302 8.22581H13.8827L14.3666 7.25806H12.2463ZM5.32258 12.5806H5.80645V13.0645H5.32258V12.5806ZM0.483871 12.0968V13.0645H4.83871V12.0968H0.483871ZM4.83871 10.1613H4.18669C4.38266 10.0236 4.56024 9.86153 4.71266 9.67742H7.25806V8.22581H5.31024C5.3175 8.14597 5.32258 8.06565 5.32258 7.98387C5.32258 7.9021 5.3175 7.82177 5.31024 7.74194H7.25806V6.29032H4.71266C4.48234 6.01185 4.1954 5.78274 3.87097 5.61629V3.87097H7.74194V10.6452H5.32258C5.32258 10.3783 5.10556 10.1613 4.83871 10.1613ZM6.77419 6.77419H5.02887C5.1075 6.92758 5.17137 7.08919 5.21952 7.25806H6.77419V6.77419ZM5.21952 8.70968H6.77419V9.19355H5.02887C5.1075 9.04016 5.17137 8.87855 5.21952 8.70968ZM4.35484 1.23315L2.86839 2.41935H4.35484V1.23315ZM4.83871 2.90323V2.41935H7.74194V3.3871H3.87097V2.90323H4.83871ZM8.22581 3.3871H11.6129V2.41935H8.22581V3.3871ZM8.22581 3.87097H11.6129V10.6452H8.22581V3.87097ZM12.0968 3.3871V6.77419H13.0645V3.3871H12.0968ZM13.5484 6.77419V3.3871H14.5161V6.77419H13.5484ZM12.0968 2.41935V2.90323H14.5161V2.41935H12.0968ZM11.6129 1.20968V1.93548H4.83871V0.967742H11.6373C11.6214 1.04589 11.6129 1.12694 11.6129 1.20968ZM3.3871 2.90323H2.41935V5.33492C2.49919 5.32766 2.57952 5.32258 2.66129 5.32258C2.91315 5.32258 3.15605 5.36008 3.3871 5.42565V2.90323ZM0.483871 7.98387C0.483871 6.78339 1.46081 5.80645 2.66129 5.80645C3.86177 5.80645 4.83871 6.78339 4.83871 7.98387C4.83871 9.18435 3.86177 10.1613 2.66129 10.1613C1.46081 10.1613 0.483871 9.18435 0.483871 7.98387ZM4.83871 11.6129V10.6452H0.483871V11.6129H4.83871ZM0.483871 14.5161V13.5484H4.83871V14.5161H0.483871ZM5.32258 13.5484V14.5161H13.0645V9.62371C12.9269 9.56637 12.8093 9.46645 12.7398 9.3271L12.0968 8.04097V11.129H5.32258V12.0968H6.29032V13.5484H5.32258Z" fill="black"/>
<path fill-rule="evenodd" clip-rule="evenodd" d="M8.22505 13.5484H6.77344V12.0968H8.22505V13.5484ZM7.74118 12.5807H7.25731V13.0645H7.74118V12.5807Z" fill="black"/>
<path fill-rule="evenodd" clip-rule="evenodd" d="M10.1626 13.5484H8.71094V12.0968H10.1626V13.5484ZM9.67868 12.5807H9.19481V13.0645H9.67868V12.5807Z" fill="black"/>
<path fill-rule="evenodd" clip-rule="evenodd" d="M12.1001 13.5484H10.6484V12.0968H12.1001V13.5484ZM11.6162 12.5807H11.1323V13.0645H11.6162V12.5807Z" fill="black"/>
</svg>
