<svg width="16" height="16" viewBox="0 0 16 16" fill="none" xmlns="http://www.w3.org/2000/svg">
<g id="calendar copy 4">
<circle id="Oval" cx="12.0625" cy="6.5625" r="0.625" fill="black"/>
<path id="Path" d="M13.5 1.25H12.6875V0.625C12.6875 0.279813 12.4077 0 12.0625 0C11.7173 0 11.4375 0.279813 11.4375 0.625V1.25H8.59375V0.625C8.59375 0.279813 8.31394 0 7.96875 0C7.62356 0 7.34375 0.279813 7.34375 0.625V1.25H4.53125V0.625C4.53125 0.279813 4.25144 0 3.90625 0C3.56106 0 3.28125 0.279813 3.28125 0.625V1.25H2.5C1.1215 1.25 0 2.3715 0 3.75V13.5C0 14.8785 1.1215 16 2.5 16H7.28125C7.62644 16 7.90625 15.7202 7.90625 15.375C7.90625 15.0298 7.62644 14.75 7.28125 14.75H2.5C1.81075 14.75 1.25 14.1892 1.25 13.5V3.75C1.25 3.06075 1.81075 2.5 2.5 2.5H3.28125V3.125C3.28125 3.47019 3.56106 3.75 3.90625 3.75C4.25144 3.75 4.53125 3.47019 4.53125 3.125V2.5H7.34375V3.125C7.34375 3.47019 7.62356 3.75 7.96875 3.75C8.31394 3.75 8.59375 3.47019 8.59375 3.125V2.5H11.4375V3.125C11.4375 3.47019 11.7173 3.75 12.0625 3.75C12.4077 3.75 12.6875 3.47019 12.6875 3.125V2.5H13.5C14.1892 2.5 14.75 3.06075 14.75 3.75V7.3125C14.75 7.65769 15.0298 7.9375 15.375 7.9375C15.7202 7.9375 16 7.65769 16 7.3125V3.75C16 2.3715 14.8785 1.25 13.5 1.25Z" fill="black"/>
<path id="Shape" fill-rule="evenodd" clip-rule="evenodd" d="M8.4375 12.2188C8.4375 10.1337 10.1337 8.4375 12.2188 8.4375C14.3038 8.4375 16 10.1337 16 12.2188C16 14.3038 14.3038 16 12.2188 16C10.1337 16 8.4375 14.3038 8.4375 12.2188ZM9.6875 12.2188C9.6875 13.6145 10.823 14.75 12.2188 14.75C13.6145 14.75 14.75 13.6145 14.75 12.2188C14.75 10.823 13.6145 9.6875 12.2188 9.6875C10.823 9.6875 9.6875 10.823 9.6875 12.2188Z" fill="black"/>
<path id="Path_2" d="M13.125 11.5938H12.8438V10.9375C12.8438 10.5923 12.5639 10.3125 12.2188 10.3125C11.8736 10.3125 11.5938 10.5923 11.5938 10.9375V12.2188C11.5938 12.5639 11.8736 12.8438 12.2188 12.8438H13.125C13.4702 12.8438 13.75 12.5639 13.75 12.2188C13.75 11.8736 13.4702 11.5938 13.125 11.5938Z" fill="black"/>
<circle id="Oval_2" cx="9.34375" cy="6.5625" r="0.625" fill="black"/>
<circle id="Oval_3" cx="6.625" cy="9.28125" r="0.625" fill="black"/>
<circle id="Oval_4" cx="3.90625" cy="6.5625" r="0.625" fill="black"/>
<circle id="Oval_5" cx="3.90625" cy="9.28125" r="0.625" fill="black"/>
<circle id="Oval_6" cx="3.90625" cy="12" r="0.625" fill="black"/>
<circle id="Oval_7" cx="6.625" cy="12" r="0.625" fill="black"/>
<circle id="Oval_8" cx="6.625" cy="6.5625" r="0.625" fill="black"/>
</g>
</svg>
