<svg width="19" height="20" viewBox="0 0 19 20" fill="none" xmlns="http://www.w3.org/2000/svg">
<path fill-rule="evenodd" clip-rule="evenodd" d="M16.405 5.11432C17.2295 5.11432 17.9002 4.44126 17.9002 3.61418C17.9002 2.78709 17.2295 2.11403 16.405 2.11403C15.5808 2.11403 14.9102 2.78709 14.9102 3.61418C14.9102 3.86404 14.9771 4.09621 15.0854 4.30363L13.7758 5.39859C12.8106 4.42679 11.476 3.82416 10.0039 3.82416C9.94083 3.82416 9.87891 3.8284 9.81697 3.83264L9.81697 3.83264L9.81696 3.83264L9.81695 3.83265L9.81694 3.83265L9.81693 3.83265L9.81692 3.83265L9.81691 3.83265C9.78701 3.8347 9.7571 3.83674 9.72706 3.83831L9.57582 2.48545C9.95041 2.31534 10.2128 1.93877 10.2128 1.50014C10.2128 0.903303 9.72867 0.417404 9.13393 0.417404C8.5392 0.417404 8.05501 0.903303 8.05501 1.50014C8.05501 2.03299 8.44146 2.47484 8.94744 2.56391L9.09772 3.90745C8.39788 4.02868 7.74515 4.28594 7.16643 4.6535L5.62961 2.50185C5.8693 2.23559 6.01958 1.88636 6.01958 1.50014C6.01958 0.673055 5.3489 0 4.52474 0C3.70057 0 3.02989 0.673055 3.02989 1.50014C3.02989 2.32756 3.70057 3.00061 4.52474 3.00061C4.73558 3.00061 4.93554 2.95559 5.11787 2.87616L6.65021 5.02171C5.62673 5.85619 4.92144 7.06402 4.73206 8.43586L2.95042 8.38345C2.87992 8.04708 2.70464 7.74544 2.43483 7.52677C2.16951 7.31132 1.83593 7.1933 1.49563 7.1933C1.04156 7.1933 0.617623 7.39621 0.332432 7.75027C0.0815282 8.06219 -0.0335094 8.45291 0.00846813 8.85166C0.0504456 9.25009 0.244632 9.60832 0.555137 9.86012C0.820461 10.0756 1.15404 10.1936 1.49434 10.1936C1.94809 10.1936 2.37203 9.99067 2.65754 9.63662C2.80462 9.45364 2.89883 9.24237 2.94818 9.01952L4.68047 9.07033C4.68017 9.08608 4.67906 9.10162 4.67794 9.11715L4.67794 9.11716C4.67664 9.13524 4.67534 9.15329 4.67534 9.17162C4.67534 10.6007 5.23996 11.8976 6.15321 12.8578L5.45946 13.6058C5.3175 13.5367 5.15985 13.4942 4.99162 13.4942C4.39688 13.4942 3.9127 13.9801 3.9127 14.577C3.9127 15.1738 4.39688 15.6597 4.99162 15.6597C5.58635 15.6597 6.07053 15.1738 6.07053 14.577C6.07053 14.3805 6.01414 14.1985 5.92249 14.0393L6.61368 13.2942C7.53558 14.0589 8.71672 14.5191 10.0033 14.5191C10.1715 14.5191 10.3375 14.5091 10.5016 14.4937L10.9028 17.1013C10.5628 17.2319 10.2757 17.4824 10.1042 17.8217C9.73187 18.5597 10.0273 19.4643 10.7627 19.8382C10.971 19.944 11.2043 20 11.4366 20C12.0038 20 12.5152 19.6849 12.7716 19.1774C12.952 18.8198 12.9827 18.4134 12.8581 18.0323C12.7337 17.6515 12.4691 17.3422 12.1127 17.1611C11.931 17.0688 11.7308 17.0174 11.5283 17.0049L11.1271 14.3969C12.9866 13.9943 14.4865 12.6157 15.0681 10.8229L16.0923 11.0905C16.1179 11.6648 16.588 12.1256 17.1664 12.1256C17.7614 12.1256 18.2456 11.6397 18.2456 11.0429C18.2456 10.446 17.7614 9.96012 17.1664 9.96012C16.7793 9.96012 16.4419 10.1675 16.2515 10.4756L15.2287 10.2084C15.2947 9.87266 15.3312 9.52632 15.3312 9.17162C15.3312 7.92874 14.9028 6.78651 14.1914 5.87742L15.4895 4.7921C15.7439 4.99084 16.0589 5.11432 16.405 5.11432ZM8.68788 1.49982C8.68788 1.25318 8.88783 1.05251 9.13361 1.05251C9.37939 1.05251 9.57934 1.25318 9.57934 1.49982C9.57934 1.74647 9.37971 1.94713 9.13393 1.94713C8.88783 1.94713 8.68788 1.74647 8.68788 1.49982ZM4.52474 0.635109C4.04952 0.635109 3.66308 1.02293 3.66308 1.49982C3.66308 1.97672 4.04952 2.36486 4.52474 2.36486C4.99995 2.36486 5.3864 1.97672 5.3864 1.49982C5.3864 1.02293 4.99995 0.635109 4.52474 0.635109ZM2.16534 9.23658C1.87599 9.59578 1.31201 9.65624 0.953443 9.36553C0.774317 9.22018 0.662484 9.01373 0.638131 8.78413C0.614098 8.5542 0.680108 8.3291 0.824947 8.14934C0.989332 7.94514 1.23383 7.82809 1.49595 7.82809C1.69462 7.82809 1.88208 7.89433 2.03685 8.02007C2.21597 8.16542 2.32781 8.37187 2.35216 8.60147C2.37619 8.83172 2.30986 9.05714 2.16534 9.23658ZM12.2073 18.8896C12.3114 18.6838 12.329 18.4494 12.2572 18.2297C12.1858 18.0104 12.0333 17.8323 11.8279 17.7278C11.7061 17.6657 11.5757 17.6345 11.4398 17.6345C11.1126 17.6345 10.8175 17.8159 10.6701 18.1088C10.4554 18.5339 10.6256 19.0552 11.0495 19.2707C11.1713 19.3327 11.302 19.3639 11.4376 19.3639C11.7647 19.3639 12.0599 19.1826 12.2073 18.8896ZM17.1673 10.5952C17.4134 10.5952 17.6134 10.7959 17.6134 11.0425C17.6134 11.2892 17.4134 11.4899 17.1673 11.4899C16.9216 11.4899 16.7216 11.2892 16.7216 11.0425C16.7216 10.7959 16.9216 10.5952 17.1673 10.5952ZM4.54621 14.577C4.54621 14.8236 4.74616 15.0243 4.99194 15.0243C5.23803 15.0243 5.43767 14.8236 5.43767 14.577C5.43767 14.3303 5.23771 14.1297 4.99194 14.1297C4.74616 14.1297 4.54621 14.3303 4.54621 14.577ZM10.0039 13.8833C7.41477 13.8833 5.30885 11.7696 5.30885 9.1713C5.30885 6.57298 7.4151 4.45959 10.0039 4.45959C12.5927 4.45959 14.699 6.57298 14.699 9.1713C14.699 11.7696 12.5927 13.8833 10.0039 13.8833ZM17.267 3.61385C17.267 3.13696 16.8802 2.74914 16.405 2.74914C15.9298 2.74914 15.5434 3.13696 15.5434 3.61385C15.5434 4.09075 15.9298 4.47857 16.405 4.47857C16.8802 4.47857 17.267 4.09075 17.267 3.61385Z" fill="white"/>
<path fill-rule="evenodd" clip-rule="evenodd" d="M8.85998 6.14038C9.68301 6.14038 10.3528 6.82084 10.3528 7.65704C10.3528 8.49356 9.68301 9.17402 8.85998 9.17402C8.03694 9.17402 7.36719 8.49356 7.36719 7.65704C7.36719 6.82084 8.03694 6.14038 8.85998 6.14038ZM8.85998 6.78281C8.38542 6.78281 7.9995 7.17489 7.9995 7.65704C7.9995 8.13918 8.38542 8.53159 8.85998 8.53159C9.33453 8.53159 9.72045 8.13918 9.72045 7.65704C9.72045 7.17489 9.33453 6.78281 8.85998 6.78281Z" fill="white"/>
<path fill-rule="evenodd" clip-rule="evenodd" d="M12.6087 10.4953C12.0148 10.4953 11.5312 10.0041 11.5312 9.40032C11.5312 8.79691 12.0148 8.30566 12.6087 8.30566C13.2026 8.30566 13.6861 8.79691 13.6861 9.40032C13.6861 10.0041 13.2026 10.4953 12.6087 10.4953ZM12.609 9.85288C12.8544 9.85288 13.0541 9.65001 13.0541 9.40032C13.0541 9.15096 12.8544 8.94809 12.609 8.94809C12.3636 8.94809 12.1639 9.15096 12.1639 9.40032C12.1639 9.65001 12.3636 9.85288 12.609 9.85288Z" fill="white"/>
<path fill-rule="evenodd" clip-rule="evenodd" d="M8.85156 11.5369C8.85156 10.9335 9.33508 10.4423 9.92899 10.4423C10.5232 10.4423 11.0067 10.9335 11.0064 11.5369C11.0064 12.1403 10.5229 12.6316 9.92899 12.6316C9.33508 12.6316 8.85156 12.1403 8.85156 11.5369ZM9.48388 11.5372C9.48388 11.7866 9.68356 11.9895 9.92899 11.9895C10.1748 11.9895 10.3744 11.7863 10.3741 11.5372C10.3741 11.2879 10.1744 11.085 9.92899 11.085C9.68356 11.085 9.48388 11.2879 9.48388 11.5372Z" fill="white"/>
</svg>
