<svg width="13" height="9" viewBox="0 0 13 9" fill="none" xmlns="http://www.w3.org/2000/svg">
<path d="M12.4462 4.90094L9.13884 8.20834C8.95654 8.39063 8.71766 8.48176 8.47874 8.48176C8.23983 8.48176 8.00095 8.39063 7.81865 8.20834C7.45413 7.84379 7.45413 7.25274 7.81865 6.88819L9.53251 5.17437H0.933486C0.417939 5.17437 0 4.75643 0 4.24088C0 3.72533 0.417939 3.30739 0.933486 3.30739H9.53251L7.81865 1.59357C7.45413 1.22901 7.45413 0.637972 7.81865 0.273417C8.18324 -0.0911389 8.77425 -0.0911389 9.13884 0.273417L12.4462 3.58082C12.8108 3.94534 12.8108 4.53641 12.4462 4.90094Z" fill="black"/>
</svg>
