<svg width="17" height="24" viewBox="0 0 17 24" fill="none" xmlns="http://www.w3.org/2000/svg">
<path fill-rule="evenodd" clip-rule="evenodd" d="M0 22.8778V2.93711C0.00061893 2.42767 0.415329 2.01555 0.926597 2.01494H6.22312C6.34753 0.966481 7.17819 0.139175 8.23168 0.0159721C9.48942 -0.131871 10.6289 0.763197 10.7775 2.01494H16.0734C16.5853 2.01555 16.9994 2.42767 17 2.93711V22.8778C16.9994 23.3867 16.5853 23.7988 16.0734 23.8H0.926597C0.415948 23.7988 0.00185679 23.3867 0 22.8778ZM16.0722 23.2111C16.2572 23.2111 16.407 23.062 16.407 22.8778L16.4095 5.78556H0.591735V22.8778C0.591735 23.062 0.741526 23.2111 0.926597 23.2111H16.0722ZM8.50031 0.582705C9.33839 0.583937 10.0496 1.19133 10.1802 2.01494H6.82847C6.95784 1.19441 7.66532 0.587633 8.50031 0.582705ZM16.4095 2.93711C16.4095 2.75292 16.2591 2.60261 16.0734 2.60261H0.926597C0.741526 2.60261 0.591735 2.75292 0.591735 2.93711V5.19665H16.4095V2.93711Z" fill="black"/>
<path d="M2.8514 10.6326C2.90449 10.7045 2.98591 10.7522 3.07652 10.7657H3.12679C3.20112 10.7657 3.27404 10.7415 3.33421 10.6971L5.48848 9.09857C5.6506 9.00917 5.70582 8.81288 5.61237 8.65961C5.51892 8.50567 5.3122 8.45324 5.15079 8.54265C5.12247 8.55743 5.09699 8.57693 5.07433 8.59911L3.20041 9.99129L2.87334 9.54829C2.76645 9.40309 2.55548 9.36679 2.40256 9.46897C2.24965 9.57048 2.21142 9.7708 2.31903 9.916L2.8514 10.6326Z" fill="black"/>
<path d="M2.87729 15.1645C2.93048 15.237 3.01204 15.2858 3.10282 15.2994H3.15318C3.22765 15.2987 3.3007 15.2743 3.36098 15.2296L5.51912 13.6171C5.67089 13.5113 5.70281 13.3087 5.59146 13.1643C5.48082 13.0206 5.26877 12.9894 5.11771 13.0965C5.11274 13.0999 5.10707 13.104 5.1021 13.108L3.22694 14.5131L2.89928 14.0664C2.81559 13.9065 2.61205 13.8414 2.44538 13.9207C2.27801 14.0007 2.20992 14.1952 2.29361 14.3559C2.30708 14.381 2.3234 14.4054 2.34396 14.4264L2.87729 15.1645Z" fill="black"/>
<path fill-rule="evenodd" clip-rule="evenodd" d="M5.67188 3.98659C5.67188 3.79881 5.8241 3.64659 6.01188 3.64659H10.9985C11.1863 3.64659 11.3385 3.79881 11.3385 3.98659C11.3385 4.17437 11.1863 4.32659 10.9985 4.32659H6.01188C5.8241 4.32659 5.67188 4.17437 5.67188 3.98659Z" fill="black"/>
<path fill-rule="evenodd" clip-rule="evenodd" d="M6.79688 10.219C6.79688 10.0312 6.9491 9.87901 7.13688 9.87901H14.3902C14.578 9.87901 14.7302 10.0312 14.7302 10.219C14.7302 10.4068 14.578 10.559 14.3902 10.559H7.13688C6.9491 10.559 6.79688 10.4068 6.79688 10.219Z" fill="black"/>
<path fill-rule="evenodd" clip-rule="evenodd" d="M6.78906 14.7327C6.78906 14.5449 6.94129 14.3927 7.12906 14.3927H14.3824C14.5702 14.3927 14.7224 14.5449 14.7224 14.7327C14.7224 14.9205 14.5702 15.0727 14.3824 15.0727H7.12906C6.94129 15.0727 6.78906 14.9205 6.78906 14.7327Z" fill="black"/>
<path d="M2.87729 19.6977C2.93048 19.7702 3.01204 19.819 3.10282 19.8326H3.15318C3.22765 19.8319 3.3007 19.8075 3.36098 19.7628L5.51912 18.1503C5.67089 18.0445 5.70281 17.8419 5.59146 17.6975C5.48082 17.5538 5.26877 17.5226 5.11771 17.6297C5.11274 17.6331 5.10707 17.6372 5.1021 17.6412L3.22694 19.0463L2.89928 18.5997C2.81559 18.4397 2.61205 18.3746 2.44538 18.4539C2.27801 18.5339 2.20992 18.7284 2.29361 18.8891C2.30708 18.9142 2.3234 18.9386 2.34396 18.9596L2.87729 19.6977Z" fill="black"/>
<path fill-rule="evenodd" clip-rule="evenodd" d="M6.78906 19.2659C6.78906 19.0781 6.94129 18.9259 7.12906 18.9259H14.3824C14.5702 18.9259 14.7224 19.0781 14.7224 19.2659C14.7224 19.4537 14.5702 19.6059 14.3824 19.6059H7.12906C6.94129 19.6059 6.78906 19.4537 6.78906 19.2659Z" fill="black"/>
</svg>
