<svg width="9" height="10" viewBox="0 0 9 10" fill="none" xmlns="http://www.w3.org/2000/svg">
<path fill-rule="evenodd" clip-rule="evenodd" d="M5.81183 4.1114C5.34354 4.5797 4.77057 4.81705 4.1088 4.81705C3.44717 4.81705 2.87421 4.57962 2.40584 4.11148C1.93762 3.64326 1.7002 3.0703 1.7002 2.40845C1.7002 1.74675 1.93762 1.17378 2.40584 0.705566C2.87405 0.23735 3.44695 0 4.1088 0C4.77049 0 5.34346 0.23735 5.81175 0.70549C6.28004 1.17386 6.5174 1.74683 6.5174 2.40845C6.5174 3.0703 6.27997 3.64319 5.81183 4.1114ZM4.1088 0.586014C3.60098 0.586014 3.17953 0.760651 2.82027 1.11992C2.46092 1.47926 2.28621 1.90079 2.28621 2.40845C2.28621 2.91626 2.46092 3.33778 2.82027 3.69705C3.17969 4.05632 3.60114 4.23103 4.1088 4.23103C4.61653 4.23103 5.03806 4.0564 5.3974 3.69705C5.75667 3.33771 5.93138 2.91626 5.93138 2.40845C5.93138 1.90079 5.75667 1.47926 5.3974 1.11992C5.03806 0.760651 4.61653 0.586014 4.1088 0.586014Z" fill="black"/>
<path fill-rule="evenodd" clip-rule="evenodd" d="M8.24181 7.05763C8.28201 7.28209 8.30933 7.49464 8.32283 7.6895C8.33618 7.87993 8.34297 8.07867 8.34305 8.28017C8.34305 8.80232 8.17711 9.22507 7.84981 9.5365C7.52655 9.84404 7.099 9.99998 6.57906 9.99998H1.76399C1.2439 9.99998 0.816345 9.84404 0.493164 9.5365C0.165939 9.22484 0 8.80225 0 8.28024C0 8.07944 0.00671387 7.88069 0.019989 7.68973C0.033493 7.49442 0.06073 7.28178 0.101013 7.05763C0.141602 6.8315 0.193863 6.6178 0.256348 6.42241C0.321045 6.22031 0.408936 6.02095 0.517502 5.82983C0.630112 5.63155 0.762558 5.45889 0.911179 5.31668C1.06674 5.16783 1.2571 5.04828 1.47697 4.96123C1.69617 4.8744 1.93909 4.83038 2.1991 4.83038C2.30118 4.83038 2.3999 4.87227 2.59041 4.9964C2.7095 5.07399 2.84683 5.16249 2.99858 5.25946C3.12935 5.34293 3.30688 5.42113 3.52585 5.49185C3.73985 5.56105 3.95699 5.59615 4.17122 5.59615C4.3856 5.59615 4.60274 5.56105 4.81659 5.49185C5.03578 5.42105 5.21324 5.34285 5.34424 5.25938C5.49744 5.1615 5.63469 5.073 5.75203 4.99648C5.94269 4.87234 6.04141 4.83046 6.14349 4.83046C6.40343 4.83046 6.64642 4.8744 6.86569 4.96115C7.08572 5.04836 7.276 5.16791 7.43141 5.3166C7.58003 5.45874 7.71248 5.63147 7.82516 5.82983C7.93388 6.02095 8.0217 6.22038 8.0864 6.42233C8.14896 6.61772 8.20122 6.8315 8.24181 7.05763ZM6.57898 9.41397C6.9487 9.41397 7.23221 9.31517 7.44576 9.11192C7.65518 8.91264 7.75696 8.64058 7.75703 8.28024C7.75696 8.09233 7.7507 7.90739 7.73827 7.73047V7.73032C7.72621 7.55637 7.70149 7.36487 7.66502 7.16109C7.62901 6.96036 7.58301 6.77191 7.52831 6.60101C7.47597 6.43752 7.4044 6.27539 7.31567 6.11937C7.23106 5.97044 7.13371 5.8428 7.02629 5.74004C6.92581 5.64391 6.79916 5.56509 6.65001 5.50604C6.51192 5.45142 6.35681 5.42151 6.18835 5.41701C6.16783 5.42792 6.13129 5.44882 6.07208 5.48735C5.95161 5.56593 5.81665 5.65291 5.65956 5.75331C5.4863 5.86378 5.26344 5.96335 4.99687 6.04948C4.72473 6.13745 4.44695 6.18216 4.1713 6.18216C3.89565 6.18216 3.61794 6.13745 3.34564 6.04941C3.0793 5.96342 2.85637 5.86378 2.68333 5.75346C2.52983 5.65543 2.39098 5.56586 2.27051 5.48735C2.2113 5.44875 2.17476 5.42792 2.15424 5.41701C1.98586 5.42151 1.83075 5.45142 1.69273 5.50604C1.5435 5.56509 1.41685 5.64383 1.31638 5.74004C1.20895 5.84288 1.1116 5.97052 1.02699 6.11929C0.938339 6.27539 0.866852 6.43744 0.814438 6.60109C0.759811 6.77176 0.713882 6.96028 0.677795 7.16116C0.641251 7.36456 0.616608 7.55598 0.604553 7.73024C0.592194 7.90785 0.586014 8.09286 0.586014 8.28024C0.586014 8.6405 0.68779 8.91264 0.897217 9.112C1.11069 9.31517 1.3942 9.41397 1.76399 9.41397H6.57898Z" fill="black"/>
</svg>
